HIERARCHY
ROOT Hips
{
	OFFSET 0.000000 0.000000 0.000000
	CHANNELS 6 Xposition Yposition Zposition Zrotation Yrotation Xrotation 
	JOINT LHipJoint
	{
		OFFSET 0.000000 0.000000 0.000000
		CHANNELS 3 Zrotation Yrotation Xrotation
		JOINT LeftUpLeg
		{
			OFFSET 1.363060 -1.794630 0.839290
			CHANNELS 3 Zrotation Yrotation Xrotation
			JOINT LeftLeg
			{
				OFFSET 2.448110 -6.726130 0.000000
				CHANNELS 3 Zrotation Yrotation Xrotation
				JOINT LeftFoot
				{
					OFFSET 2.562200 -7.039590 0.000000
					CHANNELS 3 Zrotation Yrotation Xrotation
					JOINT LeftToeBase
					{
						OFFSET 0.157640 -0.433110 2.322550
						CHANNELS 3 Zrotation Yrotation Xrotation
						End Site
						{
							OFFSET 0.000000 0.000000 0.000000
						}
					}
				}
			}
		}
	}
	JOINT RHipJoint
	{
		OFFSET 0.000000 0.000000 0.000000
		CHANNELS 3 Zrotation Yrotation Xrotation
		JOINT RightUpLeg
		{
			OFFSET -1.305520 -1.794630 0.839290
			CHANNELS 3 Zrotation Yrotation Xrotation
			JOINT RightLeg
			{
				OFFSET -2.542530 -6.985550 0.000000
				CHANNELS 3 Zrotation Yrotation Xrotation
				JOINT RightFoot
				{
					OFFSET -2.568260 -7.056230 0.000000
					CHANNELS 3 Zrotation Yrotation Xrotation
					JOINT RightToeBase
					{
						OFFSET -0.164730 -0.452590 2.363150
						CHANNELS 3 Zrotation Yrotation Xrotation
						End Site
						{
							OFFSET 0.000000 0.000000 0.000000
						}
					}
				}
			}
		}
	}
	JOINT LowerBack
	{
		OFFSET 0.000000 0.000000 0.000000
		CHANNELS 3 Zrotation Yrotation Xrotation
		JOINT Spine
		{
			OFFSET 0.028270 2.035590 -0.193380
			CHANNELS 3 Zrotation Yrotation Xrotation
			JOINT Spine1
			{
				OFFSET 0.056720 2.048850 -0.042750
				CHANNELS 3 Zrotation Yrotation Xrotation
				JOINT Neck
				{
					OFFSET 0.000000 0.000000 0.000000
					CHANNELS 3 Zrotation Yrotation Xrotation
					JOINT Neck1
					{
						OFFSET -0.054170 1.746240 0.172020
						CHANNELS 3 Zrotation Yrotation Xrotation
						JOINT Head
						{
							OFFSET 0.104070 1.761360 -0.123970
							CHANNELS 3 Zrotation Yrotation Xrotation
							End Site
							{
								OFFSET 0.000000 0.000000 0.000000
							}
						}
					}
				}
				JOINT LeftShoulder
				{
					OFFSET 0.000000 0.000000 0.000000
					CHANNELS 3 Zrotation Yrotation Xrotation
					JOINT LeftArm
					{
						OFFSET 3.362410 1.200890 -0.311210
						CHANNELS 3 Zrotation Yrotation Xrotation
						JOINT LeftForeArm
						{
							OFFSET 4.983000 -0.000000 -0.000000
							CHANNELS 3 Zrotation Yrotation Xrotation
							JOINT LeftHand
							{
								OFFSET 3.483560 -0.000000 -0.000000
								CHANNELS 3 Zrotation Yrotation Xrotation
								JOINT LeftFingerBase
								{
									OFFSET 0.000000 0.000000 0.000000
									CHANNELS 3 Zrotation Yrotation Xrotation
									JOINT LeftHandIndex1
									{
										OFFSET 0.715260 -0.000000 -0.000000
										CHANNELS 3 Zrotation Yrotation Xrotation
										End Site
										{
											OFFSET 0.000000 0.000000 0.000000
										}
									}
								}
								JOINT LThumb
								{
									OFFSET 0.000000 0.000000 0.000000
									CHANNELS 3 Zrotation Yrotation Xrotation
									End Site
									{
										OFFSET 0.000000 0.000000 0.000000
									}
								}
							}
						}
					}
				}
				JOINT RightShoulder
				{
					OFFSET 0.000000 0.000000 0.000000
					CHANNELS 3 Zrotation Yrotation Xrotation
					JOINT RightArm
					{
						OFFSET -3.136600 1.374050 -0.404650
						CHANNELS 3 Zrotation Yrotation Xrotation
						JOINT RightForeArm
						{
							OFFSET -5.241900 -0.000000 -0.000000
							CHANNELS 3 Zrotation Yrotation Xrotation
							JOINT RightHand
							{
								OFFSET -3.444170 -0.000000 -0.000000
								CHANNELS 3 Zrotation Yrotation Xrotation
								JOINT RightFingerBase
								{
									OFFSET 0.000000 0.000000 0.000000
									CHANNELS 3 Zrotation Yrotation Xrotation
									JOINT RightHandIndex1
									{
										OFFSET -0.622530 -0.000000 -0.000000
										CHANNELS 3 Zrotation Yrotation Xrotation
										End Site
										{
											OFFSET 0.000000 0.000000 0.000000
										}
									}
								}
								JOINT RThumb
								{
									OFFSET 0.000000 0.000000 0.000000
									CHANNELS 3 Zrotation Yrotation Xrotation
									End Site
									{
										OFFSET 0.000000 0.000000 0.000000
									}
								}
							}
						}
					}
				}
			}
		}
	}
}
MOTION
Frames: 4
Frame Time: 0.008333
6.600577 17.575621 6.551914 -168.082155 -16.209002 -178.326370 6.450895 1.890149 -0.571312 3.765033 -21.878539 -27.737414 6.786072 17.244336 51.722603 1.926315 0.882175 9.068074 3.232600 -11.062400 -32.490700 -11.049669 -3.852029 -2.432667 45.436664 -1.646782 -9.594082 -1.759818 -8.254083 25.400471 -2.194481 10.111726 -2.102664 -0.089600 1.930700 -5.314300 9.478506 0.309012 8.754024 2.371776 0.236249 -5.638918 3.082814 0.149199 -13.240153 -5.497789 -1.383611 -11.177625 10.848727 -2.359166 6.044534 5.035500 -1.155900 3.041200 -1.482745 -11.309218 3.012516 -64.851345 12.152742 29.185272 128.291576 -45.910753 -96.344978 1.412988 0.515518 26.456871 13.678334 21.885721 4.565900 -7.125000 0.000000 0.000000 -15.926800 50.626100 -2.257600 3.061302 11.417596 3.566631 43.871689 20.323386 -5.729773 -109.661560 51.272970 -83.765572 0.541938 2.567860 -1.217381 11.856889 45.318185 7.706800 7.125000 0.000000 0.000000 23.345300 10.413700 29.498300 
6.318663 17.570645 6.465979 -167.511207 -13.034064 -178.835898 6.360867 1.870060 -0.390597 5.890068 -27.482136 -23.975571 5.561979 16.075855 47.421814 3.217644 -2.362342 9.692969 3.416100 -11.340000 -33.435300 -11.048531 -3.833326 -2.676527 45.078979 -2.490884 -7.800343 -1.770769 -7.862915 24.601103 -2.384818 12.389173 -0.815738 -0.058900 1.565600 -4.306600 10.004217 0.633330 9.658323 2.400847 0.878436 -5.490629 3.042895 0.436127 -13.302659 -5.479896 -1.732971 -10.814624 10.833518 -2.863788 5.856107 5.009900 -1.427200 2.937500 -1.515162 -11.311825 3.061078 -64.302273 12.147646 27.204602 127.294836 -46.453240 -95.725823 1.356185 0.513833 26.634822 12.360834 21.796461 4.084100 -7.125000 0.000000 0.000000 -17.095600 50.355400 -2.315500 3.139007 11.409443 3.586887 43.031976 19.118767 -7.400074 -108.475895 51.716473 -82.907912 0.530420 2.646360 -0.598771 10.327699 47.037205 6.873600 7.125000 0.000000 0.000000 22.676100 11.973200 28.983100 
6.031994 17.563566 6.400063 -167.310315 -10.103020 -178.707789 6.294198 1.825585 -0.247014 7.336174 -32.386882 -21.409265 4.674954 15.141292 44.197049 4.397087 -5.555944 10.732540 3.529200 -11.506000 -34.006100 -11.036887 -3.800919 -2.819928 44.332610 -2.770422 -7.011211 -1.858960 -7.694909 24.348388 -2.530110 14.576905 0.179813 -0.056600 1.535600 -4.223900 10.192909 0.913432 10.073538 2.448029 1.327147 -5.388900 3.203388 0.658416 -13.249543 -5.624072 -2.147128 -10.587331 10.743219 -3.438102 5.749577 4.974800 -1.729900 2.896700 -1.499156 -11.315006 3.078774 -64.290437 11.870511 25.140155 125.894686 -47.148154 -94.734228 1.306586 0.527710 26.829122 11.568965 21.864552 3.825600 -7.125000 0.000000 0.000000 -17.822700 50.306500 -2.397600 3.188658 11.383572 3.619097 42.483114 17.956905 -8.497391 -107.119331 52.113908 -81.785380 0.459051 2.752307 0.026488 7.851428 49.774674 5.422900 7.125000 0.000000 0.000000 21.687700 14.516400 28.218900 
5.720330 17.546424 6.336801 -167.607291 -7.145838 -178.744149 6.210110 1.828549 -0.111172 7.207067 -35.590307 -18.892723 4.163888 14.451137 42.315258 5.644712 -9.466990 11.327882 3.919600 -12.052600 -35.918400 -10.975861 -3.739554 -2.923324 42.882143 -2.503624 -6.309023 -2.035495 -7.735157 24.736402 -2.646774 16.379301 0.602406 -0.107500 2.113700 -5.820000 9.963420 1.078088 10.871130 2.466953 1.681695 -5.317075 3.482843 0.864885 -13.480234 -6.033030 -2.528599 -10.297047 10.728459 -3.976277 5.802243 5.028300 -2.024700 2.935500 -1.472413 -11.343030 3.077035 -64.525652 11.590585 23.256914 123.941923 -48.016973 -93.241723 1.307476 0.537569 26.917430 12.177739 22.001495 4.075100 -7.125000 0.000000 0.000000 -17.298400 50.524700 -2.418000 3.206780 11.350993 3.670810 42.466423 16.621537 -8.887283 -106.021614 52.401474 -80.796664 0.322240 2.856092 0.312493 4.478492 52.753061 3.188500 7.125000 0.000000 0.000000 20.465200 17.393000 27.093500 
